<?xml version="1.0" encoding="UTF-8"?>
<!DOCTYPE svg PUBLIC "-//W3C//DTD SVG 1.1//EN" "http://www.w3.org/Graphics/SVG/1.1/DTD/svg11.dtd">
<svg xmlns="http://www.w3.org/2000/svg" version="1.1" width="512px" height="512px" style="shape-rendering:geometricPrecision; text-rendering:geometricPrecision; image-rendering:optimizeQuality; fill-rule:evenodd; clip-rule:evenodd" xmlns:xlink="http://www.w3.org/1999/xlink">
<g><path style="opacity:0.996" fill="#00aa95" d="M 250.5,-0.5 C 251.167,-0.5 251.833,-0.5 252.5,-0.5C 271.219,23.259 288.719,47.9257 305,73.5C 320.024,98.4072 331.857,124.741 340.5,152.5C 310.634,161.18 280.634,169.68 250.5,178C 180.956,207.214 136.789,258.381 118,331.5C 116.404,339.463 115.071,347.463 114,355.5C 113.5,407.166 113.333,458.832 113.5,510.5C 113.5,510.833 113.5,511.167 113.5,511.5C 113.167,511.5 112.833,511.5 112.5,511.5C 92.347,469.86 72.1803,428.193 52,386.5C 22.1186,313.658 28.1186,243.991 70,177.5C 80.2032,163.304 91.7032,150.137 104.5,138C 156.495,95.5095 205.161,49.3429 250.5,-0.5 Z"/></g>
<g><path style="opacity:1" fill="#a4e787" d="M 460.5,110.5 C 424.688,191.411 377.521,264.744 319,330.5C 270.699,384.836 217.866,434.003 160.5,478C 145.472,489.84 129.805,500.673 113.5,510.5C 113.333,458.832 113.5,407.166 114,355.5C 115.071,347.463 116.404,339.463 118,331.5C 136.789,258.381 180.956,207.214 250.5,178C 280.634,169.68 310.634,161.18 340.5,152.5C 381.151,140.283 421.151,126.283 460.5,110.5 Z"/></g>
<g><path style="opacity:0.997" fill="#00cc76" d="M 460.5,110.5 C 468.791,143.584 474.291,177.251 477,211.5C 481.206,264.929 472.873,316.262 452,365.5C 423.3,425.199 377.8,466.366 315.5,489C 279.051,501.59 241.718,509.09 203.5,511.5C 173.5,511.5 143.5,511.5 113.5,511.5C 113.5,511.167 113.5,510.833 113.5,510.5C 129.805,500.673 145.472,489.84 160.5,478C 217.866,434.003 270.699,384.836 319,330.5C 377.521,264.744 424.688,191.411 460.5,110.5 Z"/></g>
</svg>
